<?xml version="1.0" encoding="UTF-8" ?>
<svg version="1.1" width="16" height="16" xmlns="http://www.w3.org/2000/svg" shape-rendering="crispEdges">
<rect x="8" y="1" width="1" height="1" fill="#BE9357" />
<rect x="9" y="1" width="1" height="1" fill="#CE9546" />
<rect x="7" y="2" width="1" height="1" fill="#D79946" />
<rect x="8" y="2" width="1" height="1" fill="#D7C0A1" />
<rect x="9" y="2" width="1" height="1" fill="#BE7042" />
<rect x="10" y="2" width="1" height="1" fill="#BA8C4D" />
<rect x="6" y="3" width="1" height="1" fill="#BE9357" />
<rect x="7" y="3" width="1" height="1" fill="#D7C0A1" />
<rect x="8" y="3" width="1" height="1" fill="#C68862" />
<rect x="9" y="3" width="1" height="1" fill="#A66D4A" />
<rect x="10" y="3" width="1" height="1" fill="#CA9955" />
<rect x="6" y="4" width="1" height="1" fill="#CA9955" />
<rect x="7" y="4" width="1" height="1" fill="#C68862" />
<rect x="8" y="4" width="1" height="1" fill="#A2733B" />
<rect x="9" y="4" width="1" height="1" fill="#D79946" />
<rect x="6" y="5" width="1" height="1" fill="#B27E37" />
<rect x="7" y="5" width="1" height="1" fill="#A66D4A" />
<rect x="8" y="5" width="1" height="1" fill="#DF9133" />
<rect x="9" y="5" width="1" height="1" fill="#BE9357" />
<rect x="6" y="6" width="1" height="1" fill="#7D5F39" />
<rect x="7" y="6" width="1" height="1" fill="#B27E37" />
<rect x="8" y="6" width="1" height="1" fill="#CE9546" />
<rect x="9" y="6" width="1" height="1" fill="#654927" />
<rect x="6" y="7" width="1" height="1" fill="#7D5F39" />
<rect x="7" y="7" width="1" height="1" fill="#755732" />
<rect x="8" y="7" width="1" height="1" fill="#755732" />
<rect x="9" y="7" width="1" height="1" fill="#654927" />
<rect x="6" y="8" width="1" height="1" fill="#7D5F39" />
<rect x="7" y="8" width="1" height="1" fill="#795930" />
<rect x="8" y="8" width="1" height="1" fill="#6D4F29" />
<rect x="9" y="8" width="1" height="1" fill="#654927" />
<rect x="6" y="9" width="1" height="1" fill="#755732" />
<rect x="7" y="9" width="1" height="1" fill="#7D5F39" />
<rect x="8" y="9" width="1" height="1" fill="#6D4F29" />
<rect x="9" y="9" width="1" height="1" fill="#7D5F39" />
<rect x="6" y="10" width="1" height="1" fill="#755732" />
<rect x="7" y="10" width="1" height="1" fill="#7D5F39" />
<rect x="8" y="10" width="1" height="1" fill="#654927" />
<rect x="9" y="10" width="1" height="1" fill="#7D5F39" />
<rect x="6" y="11" width="1" height="1" fill="#654927" />
<rect x="7" y="11" width="1" height="1" fill="#7D5F39" />
<rect x="8" y="11" width="1" height="1" fill="#654927" />
<rect x="9" y="11" width="1" height="1" fill="#7D5F39" />
<rect x="6" y="12" width="1" height="1" fill="#654927" />
<rect x="7" y="12" width="1" height="1" fill="#755732" />
<rect x="8" y="12" width="1" height="1" fill="#654927" />
<rect x="9" y="12" width="1" height="1" fill="#755732" />
<rect x="6" y="13" width="1" height="1" fill="#654927" />
<rect x="7" y="13" width="1" height="1" fill="#755732" />
<rect x="8" y="13" width="1" height="1" fill="#795930" />
<rect x="9" y="13" width="1" height="1" fill="#7D5F39" />
<rect x="7" y="14" width="1" height="1" fill="#654927" />
<rect x="8" y="14" width="1" height="1" fill="#7D5F39" />
</svg>